<svg width="260" height="70" viewBox="0 0 260 70" fill="none" xmlns="http://www.w3.org/2000/svg">
<path d="M0 0H260V70H0V0Z" fill="url(#paint0_linear_401_245)"/>
<path d="M4 5H256V65H4V5Z" fill="#30302F"/>
<mask id="mask0_401_245" style="mask-type:alpha" maskUnits="userSpaceOnUse" x="4" y="5" width="252" height="60">
<path d="M4 5H256V65H4V5Z" fill="#30302F"/>
</mask>
<g mask="url(#mask0_401_245)">
<line x1="283.933" y1="77.5218" x2="82.4073" y2="-124.004" stroke="black" stroke-opacity="0.1" stroke-width="4"/>
<line x1="270.351" y1="91.104" x2="68.8251" y2="-110.421" stroke="black" stroke-opacity="0.1" stroke-width="4"/>
<line x1="256.768" y1="104.686" x2="55.2429" y2="-96.8393" stroke="black" stroke-opacity="0.1" stroke-width="4"/>
<line x1="243.186" y1="118.268" x2="41.6607" y2="-83.2572" stroke="black" stroke-opacity="0.1" stroke-width="4"/>
<line x1="297.515" y1="63.9397" x2="95.9894" y2="-137.586" stroke="black" stroke-opacity="0.1" stroke-width="4"/>
<line x1="229.604" y1="131.85" x2="28.0787" y2="-69.675" stroke="black" stroke-opacity="0.1" stroke-width="4"/>
<line x1="216.022" y1="145.433" x2="14.4964" y2="-56.0929" stroke="black" stroke-opacity="0.1" stroke-width="4"/>
<line x1="202.44" y1="159.015" x2="0.914361" y2="-42.5107" stroke="black" stroke-opacity="0.1" stroke-width="4"/>
<line x1="188.858" y1="172.597" x2="-12.6678" y2="-28.9286" stroke="black" stroke-opacity="0.1" stroke-width="4"/>
<line x1="175.275" y1="186.179" x2="-26.2499" y2="-15.3465" stroke="black" stroke-opacity="0.1" stroke-width="4"/>
<line x1="161.693" y1="199.761" x2="-39.8322" y2="-1.76419" stroke="black" stroke-opacity="0.1" stroke-width="4"/>
<line x1="148.111" y1="213.343" x2="-53.4143" y2="11.8178" stroke="black" stroke-opacity="0.1" stroke-width="4"/>
</g>
<defs>
<linearGradient id="paint0_linear_401_245" x1="0" y1="0" x2="260" y2="70" gradientUnits="userSpaceOnUse">
<stop stop-color="#FFAE15"/>
<stop offset="1" stop-color="#FF8C46"/>
</linearGradient>
</defs>
</svg>
