<svg width="15" height="26" viewBox="0 0 15 26" fill="none" xmlns="http://www.w3.org/2000/svg">
  <path
    d="M3 24L1 9H0.809017C0.437326 9 0.195578 8.60884 0.361803 8.27639L1 7H5L4 3L1.5 3.5L1 2L5.5 1L7 7H10.5H11.5H12.5H13.5L14.0528 8.10557C14.2583 8.5165 13.9594 9 13.5 9L12 24C12 24 11 25 7.5 25C4 25 3 24 3 24Z"
    fill="#162D45" />
  <path d="M11.5 9H1L2 16L4.5 24.5C4.5 24.5 6.5 25 8.5 25C10.5 25 12 24 12 24L11.5 9Z"
    fill="#9B7FDB" />
  <path d="M6.5 9L9.5 22" stroke="white" />
  <path
    d="M1 9L3 24C3 24 4 25 7.5 25C11 25 12 24 12 24L13.5 9M1 9H0.809017C0.437326 9 0.195578 8.60884 0.361803 8.27639L1 7H5L4 3L1.5 3.5L1 2L5.5 1L7 7M1 9H7.5M7 7L7.5 9M7 7H10.5M13.5 9V9C13.9594 9 14.2583 8.5165 14.0528 8.10557L13.5 7H12.5M13.5 9H13M7.5 9H11M10.5 7L11 9M10.5 7H11.5M11 9H12M12 9L11.5 7M12 9H13M11.5 7H12.5M12.5 7L13 9"
    stroke="white" stroke-width="0.5" />
  <path
    d="M6.73333 18.5H4.37124C4.12885 18.5 3.92138 18.3262 3.87895 18.0875L3.55281 16.253C3.5332 16.1427 3.5512 16.029 3.60392 15.9302L3.81791 15.5289C3.86874 15.4336 3.94907 15.3573 4.04687 15.3115L4.73302 14.9899C4.81207 14.9528 4.88772 14.9089 4.95914 14.8587L6.44575 13.8134C6.61828 13.6921 6.84839 13.6921 7.02092 13.8134L8.45129 14.8192L8.73887 14.4101L8.45129 14.8192C8.57831 14.9085 8.71843 14.9775 8.86664 15.0238L9.92633 15.355C10.0517 15.3942 10.1566 15.4811 10.2184 15.5969L10.3961 15.9302C10.4488 16.029 10.4668 16.1427 10.4472 16.253L10.121 18.0875C10.0786 18.3262 9.87115 18.5 9.62877 18.5H6.73333Z"
    fill="white" stroke="white" />
</svg>