<svg width="260" height="70" viewBox="0 0 260 70" fill="none" xmlns="http://www.w3.org/2000/svg">
<path d="M0 0H260V70H0V0Z" fill="url(#paint0_linear_405_245)"/>
<mask id="mask0_405_245" style="mask-type:alpha" maskUnits="userSpaceOnUse" x="0" y="0" width="260" height="70">
<path d="M0 0H260V70H0V0Z" fill="#30302F"/>
</mask>
<g mask="url(#mask0_405_245)">
<line x1="5.67351" y1="163.488" x2="218.511" y2="-69.7159" stroke="black" stroke-opacity="0.1" stroke-width="4"/>
<line x1="-2.17585" y1="156.324" x2="210.662" y2="-76.8797" stroke="black" stroke-opacity="0.1" stroke-width="4"/>
<line x1="-10.0253" y1="149.16" x2="202.812" y2="-84.0436" stroke="black" stroke-opacity="0.1" stroke-width="4"/>
<line x1="-17.8746" y1="141.996" x2="194.963" y2="-91.2075" stroke="black" stroke-opacity="0.1" stroke-width="4"/>
<line x1="13.5228" y1="170.652" x2="226.361" y2="-62.552" stroke="black" stroke-opacity="0.1" stroke-width="4"/>
<line x1="-25.724" y1="134.832" x2="187.114" y2="-98.3713" stroke="black" stroke-opacity="0.1" stroke-width="4"/>
<line x1="-33.5732" y1="127.669" x2="179.265" y2="-105.535" stroke="black" stroke-opacity="0.1" stroke-width="4"/>
<line x1="-41.4226" y1="120.505" x2="171.415" y2="-112.699" stroke="black" stroke-opacity="0.1" stroke-width="4"/>
<line x1="-49.2719" y1="113.341" x2="163.566" y2="-119.863" stroke="black" stroke-opacity="0.1" stroke-width="4"/>
<line x1="-57.1213" y1="106.177" x2="155.717" y2="-127.027" stroke="black" stroke-opacity="0.1" stroke-width="4"/>
<line x1="-64.9707" y1="99.0132" x2="147.867" y2="-134.191" stroke="black" stroke-opacity="0.1" stroke-width="4"/>
<line x1="-72.8199" y1="91.8494" x2="140.018" y2="-141.354" stroke="black" stroke-opacity="0.1" stroke-width="4"/>
<line x1="154.016" y1="190.494" x2="366.854" y2="-42.7099" stroke="black" stroke-opacity="0.1" stroke-width="4"/>
<line x1="146.167" y1="183.33" x2="359.005" y2="-49.8737" stroke="black" stroke-opacity="0.1" stroke-width="4"/>
<line x1="138.317" y1="176.166" x2="351.155" y2="-57.0375" stroke="black" stroke-opacity="0.1" stroke-width="4"/>
<line x1="130.468" y1="169.002" x2="343.306" y2="-64.2015" stroke="black" stroke-opacity="0.1" stroke-width="4"/>
<line x1="161.865" y1="197.658" x2="374.703" y2="-35.5459" stroke="black" stroke-opacity="0.1" stroke-width="4"/>
<line x1="122.619" y1="161.839" x2="335.457" y2="-71.3652" stroke="black" stroke-opacity="0.1" stroke-width="4"/>
<line x1="114.769" y1="154.675" x2="327.607" y2="-78.5292" stroke="black" stroke-opacity="0.1" stroke-width="4"/>
<line x1="106.92" y1="147.511" x2="319.758" y2="-85.6929" stroke="black" stroke-opacity="0.1" stroke-width="4"/>
<line x1="99.0707" y1="140.347" x2="311.909" y2="-92.8568" stroke="black" stroke-opacity="0.1" stroke-width="4"/>
<line x1="91.2214" y1="133.183" x2="304.059" y2="-100.021" stroke="black" stroke-opacity="0.1" stroke-width="4"/>
<line x1="83.372" y1="126.019" x2="296.21" y2="-107.185" stroke="black" stroke-opacity="0.1" stroke-width="4"/>
<line x1="75.5228" y1="118.855" x2="288.361" y2="-114.348" stroke="black" stroke-opacity="0.1" stroke-width="4"/>
<path d="M4 4H256V66H4V4Z" fill="url(#paint1_linear_405_245)"/>
<path d="M256 45V66H235L256 45Z" fill="url(#paint2_linear_405_245)" fill-opacity="0.6"/>
<path d="M216 66H222L256 30V24L216 66Z" fill="#FFD235"/>
<path d="M209 66H213L256 21V17L209 66Z" fill="url(#paint3_linear_405_245)" fill-opacity="0.8"/>
<path d="M50.5 5.99999L47 5.99996L4 52L4 56L50.5 5.99999Z" fill="url(#paint4_linear_405_245)" fill-opacity="0.8"/>
<path d="M46 4L41 4L4 44L4 48L46 4Z" fill="url(#paint5_linear_405_245)" fill-opacity="0.8"/>
<path d="M20 3.99999L16 3.99999L4 19L4 22L20 3.99999Z" fill="url(#paint6_linear_405_245)" fill-opacity="0.8"/>
<path d="M13.5 4L6.5 4L4 7L4 15.5L13.5 4Z" fill="#FDF46D"/>
<rect x="231.209" y="10" width="8.02038" height="32.8221" rx="4.01019" transform="rotate(45 231.209 10)" fill="url(#paint7_linear_405_245)"/>
<path d="M74 4L92 4L52.8679 42.5804C50.52 44.8952 46.7442 44.8818 44.4128 42.5504L43.3602 41.4978C40.9717 39.1093 41.0248 35.2206 43.4777 32.8982L74 4Z" fill="url(#paint8_linear_405_245)"/>
<rect x="68.354" y="35" width="5.52902" height="25.9565" rx="2.76451" transform="rotate(45 68.354 35)" fill="url(#paint9_linear_405_245)"/>
<path d="M176.483 51.9451C178.538 49.9512 181.812 49.9758 183.837 52.0003V52.0003C185.91 54.0732 185.879 57.4436 183.768 59.4779L177 66L162 66L176.483 51.9451Z" fill="#FED032"/>
</g>
<defs>
<linearGradient id="paint0_linear_405_245" x1="130" y1="0" x2="130" y2="70" gradientUnits="userSpaceOnUse">
<stop stop-color="#F4A809"/>
</linearGradient>
<linearGradient id="paint1_linear_405_245" x1="130" y1="4" x2="130" y2="66" gradientUnits="userSpaceOnUse">
<stop stop-color="#FFFB55"/>
<stop offset="1" stop-color="#F3A607"/>
</linearGradient>
<linearGradient id="paint2_linear_405_245" x1="245.5" y1="45" x2="245.5" y2="66" gradientUnits="userSpaceOnUse">
<stop stop-color="#F3AA12"/>
<stop offset="1" stop-color="#F7C01F"/>
</linearGradient>
<linearGradient id="paint3_linear_405_245" x1="252.5" y1="20" x2="224" y2="51" gradientUnits="userSpaceOnUse">
<stop stop-color="white"/>
<stop offset="1" stop-color="white" stop-opacity="0"/>
</linearGradient>
<linearGradient id="paint4_linear_405_245" x1="5.5" y1="55" x2="34" y2="24" gradientUnits="userSpaceOnUse">
<stop stop-color="white"/>
<stop offset="1" stop-color="white" stop-opacity="0"/>
</linearGradient>
<linearGradient id="paint5_linear_405_245" x1="5.49999" y1="49" x2="24" y2="28.5" gradientUnits="userSpaceOnUse">
<stop stop-color="white" stop-opacity="0.8"/>
<stop offset="1" stop-color="white" stop-opacity="0"/>
</linearGradient>
<linearGradient id="paint6_linear_405_245" x1="5.5" y1="22" x2="34" y2="-9" gradientUnits="userSpaceOnUse">
<stop stop-color="#FFFF2F"/>
</linearGradient>
<linearGradient id="paint7_linear_405_245" x1="234.876" y1="62.1735" x2="236.129" y2="7.34031" gradientUnits="userSpaceOnUse">
<stop stop-color="#FED032"/>
<stop offset="1" stop-color="#FBE13D"/>
</linearGradient>
<linearGradient id="paint8_linear_405_245" x1="84.341" y1="2.30246" x2="43.3006" y2="42.0525" gradientUnits="userSpaceOnUse">
<stop stop-color="#FFCD30"/>
<stop offset="1" stop-color="#FFDF3F"/>
</linearGradient>
<linearGradient id="paint9_linear_405_245" x1="71.3714" y1="35.1207" x2="70.9049" y2="61.1527" gradientUnits="userSpaceOnUse">
<stop stop-color="#FFCD30"/>
<stop offset="1" stop-color="#FFD134"/>
</linearGradient>
</defs>
</svg>
