<svg version="1.1" id="背景ライン" xmlns="http://www.w3.org/2000/svg" x="0" y="0" viewBox="0 0 731.92 10.17" xml:space="preserve"><style>.st0{fill:#fdd000}</style><path class="st0" d="M0 10.17L10.17 0l10.16 10.17zm20.33 0L30.5 0l10.16 10.17zm20.33 0L50.83 0l10.16 10.17zm20.33 0L71.16 0l10.16 10.17zm20.33 0L91.49 0l10.17 10.17zm20.34 0L111.82 0l10.17 10.17zm20.33 0L132.15 0l10.17 10.17zm20.33 0L152.48 0l10.17 10.17zm20.33 0L172.81 0l10.17 10.17zm20.33 0L193.15 0l10.16 10.17zm20.33 0L213.48 0l10.16 10.17zm20.33 0L233.81 0l10.16 10.17zm20.33 0L254.14 0l10.16 10.17zm20.33 0L274.47 0l10.16 10.17z"/><path class="st0" d="M284.63 10.17L294.8 0l10.17 10.17zm20.34 0L315.13 0l10.17 10.17zm20.33 0L335.46 0l10.17 10.17zm20.33 0L355.79 0l10.17 10.17z"/><path class="st0" d="M365.96 10.17L376.12 0l10.17 10.17zm20.33 0L396.46 0l10.16 10.17zm20.33 0L416.79 0l10.16 10.17z"/><path class="st0" d="M426.95 10.17L437.12 0l10.16 10.17z"/><path class="st0" d="M447.28 10.17L457.45 0l10.16 10.17zm20.33 0L477.78 0l10.17 10.17zm20.34 0L498.11 0l10.17 10.17z"/><path class="st0" d="M508.28 10.17L518.44 0l10.17 10.17zm20.33 0L538.77 0l10.17 10.17zm20.33 0L559.1 0l10.17 10.17zm20.33 0L579.44 0l10.16 10.17zm20.33 0L599.77 0l10.16 10.17zm20.33 0L620.1 0l10.16 10.17zm20.33 0L640.43 0l10.16 10.17zm20.33 0L660.76 0l10.17 10.17zm20.34 0L681.09 0l10.17 10.17zm20.33 0L701.42 0l10.17 10.17zm20.33 0L721.75 0l10.17 10.17z"/></svg>