<svg width="140" height="45" viewBox="0 0 140 45" fill="none" xmlns="http://www.w3.org/2000/svg">
  <path d="M3 4H140V16.2388V31.7539V44.3693L3 45V4Z" fill="#22208A" />
  <rect y="4" width="38" height="38" fill="white" />
  <rect x="36" y="4" width="71" height="38" fill="#FFEE64" />
  <path
    d="M105.703 4.21918C105.703 4.21918 100.924 4.21918 115.261 3.61644C129.598 3.0137 137.47 0 137.47 0L140 38.5753C140 38.5753 128.755 41.1486 119.759 41.8904C110.763 42.6322 105.703 42.1917 105.703 42.1917V4.21918Z"
    fill="#EECC32" />
  <path
    d="M0.5 41.9973V3.82208L1.18677 3.83156C1.96648 3.84223 3.1118 3.85768 4.57436 3.87681C7.49948 3.91508 11.6935 3.96805 16.7694 4.02692C26.9212 4.14464 40.6005 4.28592 54.7105 4.3801C68.8202 4.47429 83.3621 4.52139 95.2383 4.45074C107.099 4.38018 116.338 4.19229 119.813 3.81209C126.717 3.05695 131.165 2.22515 133.895 1.57902C135.26 1.25591 136.197 0.978967 136.797 0.780826C136.875 0.75486 136.948 0.730243 137.015 0.707048L139.476 38.2233C139.328 38.2697 139.13 38.3292 138.877 38.3999C138.2 38.5895 137.131 38.8599 135.577 39.178C132.47 39.8142 127.428 40.6407 119.711 41.3928C112.011 42.1431 82.1069 42.2945 54.082 42.2568C40.0795 42.238 26.56 42.1721 16.5411 42.1109C11.5316 42.0803 7.39737 42.0508 4.5155 42.0291C3.07456 42.0182 1.94673 42.0092 1.17915 42.0029L0.5 41.9973Z"
    stroke="#918D2E" />
  <path
    d="M0.5 41.9973V3.82208L1.18677 3.83156C1.96648 3.84223 3.1118 3.85768 4.57436 3.87681C7.49948 3.91508 11.6935 3.96805 16.7694 4.02692C26.9212 4.14464 40.6005 4.28592 54.7105 4.3801C68.8202 4.47429 83.3621 4.52139 95.2383 4.45074C107.099 4.38018 116.338 4.19229 119.813 3.81209C126.717 3.05695 131.165 2.22515 133.895 1.57902C135.26 1.25591 136.197 0.978967 136.797 0.780826C136.875 0.75486 136.948 0.730243 137.015 0.707048L139.476 38.2233C139.328 38.2697 139.13 38.3292 138.877 38.3999C138.2 38.5895 137.131 38.8599 135.577 39.178C132.47 39.8142 127.428 40.6407 119.711 41.3928C112.011 42.1431 82.1069 42.2945 54.082 42.2568C40.0795 42.238 26.56 42.1721 16.5411 42.1109C11.5316 42.0803 7.39737 42.0508 4.5155 42.0291C3.07456 42.0182 1.94673 42.0092 1.17915 42.0029L0.5 41.9973Z"
    stroke="#22208A" stroke-opacity="0.2" />
</svg>  