<svg width="264" height="34" viewBox="0 0 264 34" fill="none" xmlns="http://www.w3.org/2000/svg">
  <path
    d="M11.9979 2.5L11.4955 2.50105L11.1964 2.90477L1.62943 15.8202C1.11318 16.5172 1.10496 17.4674 1.60908 18.1732L11.1863 31.5812L11.4861 32.0011L12.0021 32L252.002 31.5L252.505 31.499L252.804 31.0952L262.371 18.1798C262.887 17.4828 262.895 16.5326 262.391 15.8268L252.814 2.41876L252.514 1.99893L251.998 2L11.9979 2.5Z"
    fill="#F9F9F7" stroke="#201E6E" stroke-width="2" />
  <path
    d="M14 6L5.94924 16.8922C5.68343 17.2518 5.6887 17.7442 5.96213 18.098L14 28.5L250.125 28L258.034 18.0837C258.311 17.7375 258.326 17.2509 258.073 16.8878L250.125 5.5L14 6Z"
    fill="#F9F9F7" stroke="#312EA6" />
</svg>
  