<svg width="262" height="72" viewBox="0 0 262 72" fill="none" xmlns="http://www.w3.org/2000/svg">
  <rect x="0.5" y="0.5" width="261" height="71" rx="12.5" fill="black" stroke="#292929" />
  <mask id="mask0_222_28" style="mask-type:alpha" maskUnits="userSpaceOnUse" x="1" y="1" width="260"
    height="70">
    <rect x="1" y="1" width="260" height="70" rx="12" fill="black" />
  </mask>
  <g mask="url(#mask0_222_28)">
    <path d="M-4 68.8124L130.656 35.1415L-3.5128 70.7522L-4 68.8124Z" fill="#264758" />
    <path d="M-4.62073 67.2564L130.5 35.5L-4.1611 69.2028L-4.62073 67.2564Z" fill="#4C606A" />
    <path d="M-6 51.8984L130 34L-5.54038 53.8449L-6 51.8984Z" fill="#4C606A" />
    <path d="M267.108 68.8124L132.452 35.1415L266.621 70.7522L267.108 68.8124Z" fill="#264758" />
    <path d="M267.729 67.2564L132.608 35.5L267.269 69.2028L267.729 67.2564Z" fill="#4C606A" />
    <path d="M269.108 51.8984L133 34L268.648 53.8449L269.108 51.8984Z" fill="#4C606A" />
    <path d="M131 38L133 73H132L131 38Z" fill="#030D19" />
    <path d="M131 38L129 73H130L131 38Z" fill="#030D19" />
    <path d="M131 38L132 73H130L131 38Z" fill="#455C72" />
    <path d="M131 34L133 -1.00001H132L131 34Z" fill="#030D19" />
    <path d="M131 34L129 -1.00001H130L131 34Z" fill="#030D19" />
    <path d="M131 34L132 -1H130L131 34Z" fill="#455C72" />
    <g filter="url(#filter0_d_222_28)">
      <ellipse cx="131" cy="36" rx="64" ry="31" fill="#071A29" fill-opacity="0.5"
        shape-rendering="crispEdges" />
    </g>
  </g>
  <defs>
    <filter id="filter0_d_222_28" x="-13" y="-75" width="288" height="222"
      filterUnits="userSpaceOnUse" color-interpolation-filters="sRGB">
      <feFlood flood-opacity="0" result="BackgroundImageFix" />
      <feColorMatrix in="SourceAlpha" type="matrix"
        values="0 0 0 0 0 0 0 0 0 0 0 0 0 0 0 0 0 0 127 0" result="hardAlpha" />
      <feMorphology radius="40" operator="dilate" in="SourceAlpha"
        result="effect1_dropShadow_222_28" />
      <feOffset />
      <feGaussianBlur stdDeviation="20" />
      <feComposite in2="hardAlpha" operator="out" />
      <feColorMatrix type="matrix"
        values="0 0 0 0 0.027451 0 0 0 0 0.101961 0 0 0 0 0.160784 0 0 0 1 0" />
      <feBlend mode="normal" in2="BackgroundImageFix" result="effect1_dropShadow_222_28" />
      <feBlend mode="normal" in="SourceGraphic" in2="effect1_dropShadow_222_28" result="shape" />
    </filter>
  </defs>
</svg>
  